HIERARCHY
ROOT Hips
{
  OFFSET 0 0 0
  CHANNELS 6 Xposition Yposition Zposition Zrotation Yrotation Xrotation
  JOINT LeftThigh
  {
    OFFSET 8.409438 0 -5.917753
    CHANNELS 3 Zrotation Yrotation Xrotation
    JOINT LeftLeg
    {
      OFFSET 0 0 -42.358652
      CHANNELS 3 Zrotation Yrotation Xrotation
      JOINT LeftFoot
      {
        OFFSET 0 0 -39.357303
        CHANNELS 3 Zrotation Yrotation Xrotation
      }
    }
  }
  JOINT RightThigh
  {
    OFFSET -8.409438 0 -5.917753
    CHANNELS 3 Zrotation Yrotation Xrotation
    JOINT RightLeg
    {
      OFFSET 0 0 -42.358652
      CHANNELS 3 Zrotation Yrotation Xrotation
      JOINT RightFoot
      {
        OFFSET 0 0 -39.357303
        CHANNELS 3 Zrotation Yrotation Xrotation
      }
    }
  }
  JOINT SpineLow
  {
    OFFSET 0 0 4.719101
    CHANNELS 3 Zrotation Yrotation Xrotation
    JOINT SpineMid
    {
      OFFSET 0 0 12.899191
      CHANNELS 3 Zrotation Yrotation Xrotation
      JOINT Chest
      {
        OFFSET 0 0 12.899191
        CHANNELS 3 Zrotation Yrotation Xrotation
        JOINT LeftShoulder
        {
          OFFSET 7.550562 1.41573 9.438202
          CHANNELS 3 Zrotation Yrotation Xrotation
          JOINT LeftArm
          {
            OFFSET 9.155056 0 4.247191
            CHANNELS 3 Zrotation Yrotation Xrotation
            JOINT LeftForearm
            {
              OFFSET 0 0 25.771955
              CHANNELS 3 Zrotation Yrotation Xrotation
              JOINT LeftHand
              {
                OFFSET 0 0 25.197169
                CHANNELS 3 Zrotation Yrotation Xrotation
              }
            }
          }
        }
        JOINT RightShoulder
        {
          OFFSET -7.550562 1.41573 9.438202
          CHANNELS 3 Zrotation Yrotation Xrotation
          JOINT RightArm
          {
            OFFSET -9.155056 0 4.247191
            CHANNELS 3 Zrotation Yrotation Xrotation
            JOINT RightForearm
            {
              OFFSET 0 0 -25.771955
              CHANNELS 3 Zrotation Yrotation Xrotation
              JOINT RightHand
              {
                OFFSET 0 0 -25.197169
                CHANNELS 3 Zrotation Yrotation Xrotation
              }
            }
          }
        }
        JOINT Neck
        {
          OFFSET 0 0 15.101124
          CHANNELS 3 Zrotation Yrotation Xrotation
          JOINT Head
          {
            OFFSET 0 0 11.325843
            CHANNELS 3 Zrotation Yrotation Xrotation
            End Site
            {
              OFFSET 0 0 14.157303
            }
          }
        }
      }
    }
  }
}
MOTION
Frames: 16
Frame Time: 0.0
0.0  101.685394  0.0  -6.783097  -32.561477  -99.269319  36.512081  -29.909234  3.162063  -11.159114  10.954794  29.117873  6.083348  5.050579  1.71018  -3.833705  -2.298491  -8.940316  3.89149  9.220271  21.015852  21.711501  4.576711  -0.407945  -5.951524  -2.329673  3.810425  -16.623247  -5.370633  10.937698  -16.623248  -5.370633  10.937697  -9.756218  13.665509  -2.580247  65.315821  50.227814  96.493054  -17.337791  -40.089122  124.770654  140.97027  0.941194  -15.17869  10.978536  16.731656  16.884148  93.164974  -7.625937  58.371098  -44.752837  -24.759765  -110.970693  49.863094  44.623539  21.879336  27.590955  7.094446  -6.43259  20.744111  5.043369  -5.152812  
0.0  101.685394  0.0  -6.518178  -34.325256  -100.262816  36.826573  -30.200433  4.407208  -11.016355  11.000385  28.908926  6.707208  5.318334  1.7004  -1.569586  -2.002895  -8.306442  2.212622  9.657207  20.894968  22.889413  4.499921  -0.49606  -5.840138  -2.209523  3.863568  -16.299634  -5.051437  11.042578  -16.299635  -5.051437  11.042578  -10.127447  14.606412  -2.109948  63.486494  51.963064  94.345008  -17.364296  -41.189136  123.593436  139.66471  1.613725  -16.113934  9.212708  16.717419  17.336763  91.089983  -5.975229  57.65869  -45.421386  -24.083088  -110.569982  46.190584  42.997953  20.073402  28.22944  7.279641  -5.489429  21.210908  5.219967  -4.461069  
0.0  101.685394  0.0  -5.884506  -34.988504  -101.319314  36.042147  -30.056128  6.011808  -10.112096  10.644449  28.550743  6.54775  5.357493  1.753037  -0.777611  -1.469588  -7.620374  1.568763  9.968585  20.681168  23.55962  4.481263  -0.66993  -5.98541  -2.055881  3.804423  -16.663141  -4.62613  10.850023  -16.66314  -4.62613  10.850023  -9.228585  15.601488  -0.86753  61.720533  54.307813  92.707737  -17.615601  -40.593858  123.024516  138.783494  1.15745  -17.104453  8.15855  16.720845  17.666966  89.668036  -4.138128  57.046182  -45.678017  -24.677671  -109.047314  39.92292  42.754967  15.212666  29.083563  7.252438  -4.241786  21.834968  5.251934  -3.5338  
0.0  101.685394  0.0  -5.024763  -35.589974  -101.326595  34.221295  -28.49935  6.4009  -7.931588  10.088661  28.716033  6.463926  5.301307  2.052817  0.037739  -0.900554  -7.896385  1.69392  10.139061  20.284094  23.576111  4.404752  -0.823073  -6.122116  -1.978642  3.635236  -17.012369  -4.438124  10.37753  -17.01237  -4.438124  10.37753  -8.170072  16.38951  -0.163529  60.570984  56.748461  91.916423  -17.865753  -39.65693  122.899364  138.673386  0.376731  -17.915791  7.696191  16.623225  16.667454  89.019779  -3.657815  56.488445  -45.643548  -27.457941  -109.404848  41.436062  40.648665  14.762555  29.784126  7.227029  -3.248021  22.347429  5.277058  -2.79502  
0.0  101.685394  0.0  -4.43594  -36.467475  -100.784188  34.034938  -27.193178  6.607591  -6.139473  9.380291  28.457872  5.927775  5.141018  2.122872  1.366926  -0.675399  -8.423336  2.052319  10.118191  19.809644  23.052325  4.472914  -0.954677  -6.084307  -1.951311  3.441018  -16.893652  -4.420234  9.840597  -16.893652  -4.420234  9.840596  -7.725834  16.882922  0.295043  59.746619  58.677358  91.544102  -18.298114  -39.236001  123.115662  138.492194  -0.215078  -18.835317  7.165392  16.356746  15.823377  89.038515  -3.308184  56.01621  -44.448235  -28.508811  -109.809833  45.016361  40.255786  16.364563  29.78155  6.92702  -2.488291  22.337398  5.088455  -2.209668  
0.0  101.685394  0.0  -4.03984  -37.209438  -100.150074  33.26444  -25.855992  6.678654  -4.063179  8.634754  28.435682  5.442331  4.955923  2.142561  2.928124  -0.483499  -8.880344  2.091035  10.010411  19.321027  22.359101  4.603436  -1.073592  -6.055188  -1.934282  3.258478  -16.801128  -4.425266  9.338614  -16.801126  -4.425266  9.338614  -7.446331  17.246171  0.655754  59.429321  59.993165  91.470259  -11.568157  -38.352839  122.616877  142.024051  4.986069  -19.558367  7.167123  15.91382  15.419648  89.803883  -3.20811  55.910687  -45.050992  -28.494562  -108.581464  47.423807  40.055496  16.614959  29.520762  6.508318  -1.816023  22.136159  4.80687  -1.681227  
0.0  101.685394  0.0  -3.547264  -37.709866  -99.763917  32.261939  -24.48116  6.889658  -2.421259  7.93469  28.40456  5.391116  4.928493  2.242511  4.073739  -0.152974  -9.197027  2.096201  9.978497  18.898061  21.890109  4.678313  -1.181852  -6.093431  -1.893065  3.096401  -16.889898  -4.349781  8.889591  -16.889897  -4.349781  8.889591  -6.99993  17.731722  0.977073  59.344873  60.778416  91.424501  -12.093777  -38.471513  123.048517  141.628113  4.481698  -20.178824  8.099779  15.3393  15.437794  90.79366  -3.408995  56.211835  -46.809871  -26.845083  -107.536828  47.790006  39.452961  16.497076  29.27255  6.178756  -1.244224  21.945666  4.58697  -1.232998  
0.0  101.685394  0.0  -2.983618  -37.969038  -99.970979  30.871077  -23.305662  7.43227  -1.313435  7.345407  28.393487  5.824174  5.045202  2.456854  4.848642  0.279828  -9.058332  1.918003  10.068245  18.531223  21.734778  4.605703  -1.259485  -6.159698  -1.838288  3.044705  -17.059512  -4.205753  8.738199  -17.059512  -4.205752  8.738198  -6.533995  18.184626  1.074014  59.419548  61.246236  91.617248  -12.463588  -38.411406  123.474181  141.317333  4.009772  -20.442798  9.33102  14.913307  15.658529  91.817598  -3.445425  56.689263  -48.434792  -25.31105  -106.781595  47.703524  38.775109  15.953445  29.036373  6.126951  -0.94408  21.765905  4.562582  -1.002552  
0.0  101.685394  0.0  -2.456087  -38.056872  -100.607143  29.380551  -22.391835  8.15833  -0.457602  6.946651  28.571103  6.357121  5.082311  2.578826  5.272948  0.736773  -8.599212  1.596422  10.194474  18.227354  21.876786  4.390919  -1.255005  -6.229903  -1.787643  3.093111  -17.245872  -4.046479  8.859649  -17.245872  -4.046479  8.859649  -6.130406  18.487578  0.999238  59.846182  61.529516  92.274577  -12.651059  -38.249067  123.725397  141.12071  3.597602  -20.349312  10.663797  14.74813  15.948627  92.688103  -3.354657  57.077239  -49.305722  -24.330548  -106.346494  48.604235  38.509368  15.99771  28.786997  6.282769  -0.928991  21.578069  4.680645  -0.996056  
0.0  101.685394  0.0  -2.229666  -37.735978  -101.076306  27.796944  -21.709935  8.722929  0.139334  6.649278  28.778127  7.004304  5.128349  2.6872  5.109356  1.133937  -8.285643  1.206115  10.263053  18.064729  22.069125  4.194792  -1.222516  -6.307702  -1.781429  3.175965  -17.461432  -3.996979  9.086809  -17.461433  -3.996979  9.08681  -5.886623  18.688449  0.873839  60.301938  61.681993  93.052468  -12.647753  -38.085784  123.746227  140.992576  3.228926  -19.892784  11.840885  14.745726  16.235723  93.40117  -3.261015  57.372793  -49.861882  -23.586788  -106.405196  49.797864  38.312377  16.55909  28.461253  6.521494  -1.15393  21.335137  4.849877  -1.172802  
0.0  101.685394  0.0  -2.026689  -37.589745  -101.468103  26.621672  -21.138763  9.149582  0.578168  6.414297  28.910157  7.568548  5.184456  2.777364  5.014652  1.545119  -8.15979  0.825109  10.185625  18.100427  22.396199  4.025271  -1.151818  -6.247303  -1.773726  3.268222  -17.29986  -3.960462  9.332058  -17.29986  -3.960462  9.332057  -6.15419  18.640241  0.732073  60.827233  61.800735  93.92537  -12.338814  -38.015251  123.469047  140.942118  2.990023  -19.295953  12.480272  14.800209  16.544719  93.959549  -2.977671  57.433168  -50.456314  -22.682521  -106.674956  50.255191  37.986355  17.03137  27.866467  6.683216  -1.576702  20.893401  4.952779  -1.491206  
0.0  101.685394  0.0  -2.105143  -37.16671  -101.39058  25.617612  -20.743917  9.198131  1.278116  6.193208  29.204227  7.570339  5.112787  2.632702  4.372723  1.812964  -8.399878  0.4066  10.111148  18.180073  22.956905  3.888176  -1.04422  -6.167634  -1.825799  3.336814  -17.094365  -4.095083  9.528337  -17.094366  -4.095083  9.528337  -6.52063  18.585329  0.517519  61.123516  61.8579  94.656293  -11.830306  -37.960517  122.978055  141.030746  2.973203  -18.730793  12.548778  14.928381  16.341643  94.611098  -2.932536  57.443045  -51.402284  -22.110323  -106.343748  50.26618  37.617125  16.738599  27.172321  6.832254  -2.085095  20.378536  5.043401  -1.871764  
0.0  101.685394  0.0  -2.033429  -36.806795  -101.265132  25.157941  -20.418562  9.117173  1.526876  6.084422  29.222059  7.571179  5.109402  2.616883  3.592475  2.083799  -8.708851  0.639865  10.013766  18.342117  23.271777  3.807537  -0.967115  -6.058707  -1.878045  3.37407  -16.807705  -4.243056  9.637755  -16.807705  -4.243056  9.637755  -6.801208  18.53427  0.307792  61.418972  62.011868  95.371305  -11.223964  -37.933692  122.347542  141.244319  3.118173  -18.178297  12.761065  15.097461  16.424312  94.984062  -2.601963  57.372775  -52.04388  -21.353781  -106.223826  50.413854  37.233436  16.826293  26.597984  6.987712  -2.575583  19.953498  5.140388  -2.240117  
0.0  101.685394  0.0  -2.3229  -36.041205  -100.976743  24.734285  -20.508606  8.921793  1.624826  6.029945  29.271101  7.346536  5.069426  2.522494  2.133862  2.001257  -8.883492  1.145182  9.996676  18.432156  23.596997  3.797688  -0.901039  -6.025022  -1.965186  3.383262  -16.730967  -4.481543  9.684057  -16.730967  -4.481543  9.684058  -6.705579  18.700755  0.385917  61.414174  62.22562  95.837032  -10.650903  -37.984749  121.704261  141.416991  3.251107  -17.692851  13.084677  15.27624  16.69085  95.342757  -2.284143  57.257689  -53.152342  -20.848862  -106.229794  50.743702  36.140236  16.711636  26.210891  7.06392  -2.889556  19.667066  5.185516  -2.474464  
0.0  101.685394  0.0  -2.249412  -35.229145  -100.888528  24.810282  -20.548411  8.738264  1.217809  6.16079  29.192053  7.095924  5.047868  2.438341  0.651477  2.077805  -8.91864  2.042991  10.060715  18.454159  23.703411  3.848406  -0.86152  -5.92744  -2.005287  3.379474  -16.471173  -4.605719  9.678647  -16.471174  -4.605719  9.678648  -7.047735  18.7617  0.39203  61.452982  62.550944  96.214202  -10.072723  -38.210772  120.970807  141.558538  3.482629  -17.427262  13.03048  15.317414  16.848284  95.653206  -1.900386  57.110817  -54.366293  -20.310502  -105.366118  51.018145  35.538155  15.947176  25.729582  7.11833  -3.19838  19.31014  5.215294  -2.702739  
0.0  101.685394  0.0  -2.214589  -34.143403  -100.84602  25.143648  -20.857559  8.524755  0.367788  6.468534  29.048844  6.792765  5.01569  2.352426  -2.679492  2.008926  -9.358068  4.586152  9.99927  18.888023  23.913213  3.947653  -0.794962  -5.820312  -2.016562  3.370234  -16.180083  -4.654653  9.650034  -16.180083  -4.654653  9.650033  -7.442716  18.734716  0.527549  61.142552  62.921463  96.305641  -9.672676  -38.646804  120.333052  141.57589  3.810996  -17.247592  12.663785  15.080921  17.023125  96.042298  -1.500449  56.944364  -56.028166  -19.432516  -104.127547  51.351251  34.867256  15.032814  25.146527  7.032752  -3.462908  18.876698  5.142673  -2.890663  
